<?xml version="1.0" encoding="UTF-8" standalone="no"?>
<!-- Created with Inkscape (http://www.inkscape.org/) -->

<svg
   width="512"
   height="512"
   viewBox="0 0 512 512"
   version="1.1"
   id="svg1"
   xml:space="preserve"
   sodipodi:docname="zena-logo.svg"
   inkscape:version="1.4.3 (0d15f75042, 2025-12-25)"
   xmlns:inkscape="http://www.inkscape.org/namespaces/inkscape"
   xmlns:sodipodi="http://sodipodi.sourceforge.net/DTD/sodipodi-0.dtd"
   xmlns:xlink="http://www.w3.org/1999/xlink"
   xmlns="http://www.w3.org/2000/svg"
   xmlns:svg="http://www.w3.org/2000/svg"><sodipodi:namedview
     id="namedview1"
     pagecolor="#505050"
     bordercolor="#eeeeee"
     borderopacity="1"
     inkscape:showpageshadow="0"
     inkscape:pageopacity="0"
     inkscape:pagecheckerboard="0"
     inkscape:deskcolor="#505050"
     inkscape:zoom="0.19659931"
     inkscape:cx="704.47856"
     inkscape:cy="297.55954"
     inkscape:window-width="1920"
     inkscape:window-height="1003"
     inkscape:window-x="0"
     inkscape:window-y="0"
     inkscape:window-maximized="1"
     inkscape:current-layer="svg1"
     inkscape:lockguides="false" /><defs
     id="defs1"><linearGradient
       id="linearGradient10"><stop
         style="stop-color:#0072ff;stop-opacity:1;"
         offset="0"
         id="stop10" /><stop
         style="stop-color:#63e2ff;stop-opacity:1;"
         offset="1"
         id="stop11" /></linearGradient><linearGradient
       id="linearGradient7"><stop
         style="stop-color:#0072ff;stop-opacity:1;"
         offset="0"
         id="stop8" /><stop
         style="stop-color:#63e2ff;stop-opacity:1;"
         offset="1"
         id="stop9" /></linearGradient><linearGradient
       xlink:href="#linearGradient7"
       id="linearGradient9"
       x1="94.881805"
       y1="421.69931"
       x2="334.68109"
       y2="185.69186"
       gradientUnits="userSpaceOnUse"
       gradientTransform="translate(14.970125,-1.4162177)" /><linearGradient
       xlink:href="#linearGradient10"
       id="linearGradient11"
       x1="307.50555"
       y1="286.75427"
       x2="441.21091"
       y2="286.75427"
       gradientUnits="userSpaceOnUse" /><linearGradient
       xlink:href="#linearGradient10"
       id="linearGradient13"
       gradientUnits="userSpaceOnUse"
       x1="306.13937"
       y1="206.83327"
       x2="452.14029"
       y2="264.21246" /></defs><g
     id="layer1"
     transform="matrix(1.6653444,0,0,1.645943,-224.46845,-143.90201)"
     style="stroke:none;stroke-opacity:1"><path
       id="path1"
       style="display:inline;fill:url(#linearGradient9);stroke:none;stroke-opacity:1"
       d="m 404.3571,114.55259 c -69.26689,11.42997 -151.92279,47.10892 -180.07692,69.78685 -18.44371,14.85626 -33.50309,52.86661 -33.50309,52.86661 0,0 23.34013,-15.25946 54.81679,-30.26999 29.54076,-14.08734 81.4244,-29.63756 81.4244,-29.63756 0,0 -80.05854,72.24917 -158.30271,175.21616 -5.35899,7.05227 -14.09783,18.85724 -14.09783,18.85724 148.9351,-49.12311 208.89032,-49.55834 267.78445,-36.17315 0,0 -28.75869,-30.47199 -58.26657,-36.61321 -50.15223,-10.43775 -108.13983,8.77939 -108.13983,8.77939 0,0 43.55366,-43.22126 63.94394,-66.14829 52.66908,-59.22164 76.64497,-86.00782 84.41737,-126.66405 z"
       sodipodi:nodetypes="cscscsccscsc" /></g></svg>
